HIERARCHY
ROOT Hips
{
	OFFSET 0.000000 0.000000 0.000000
	CHANNELS 6 Xposition Yposition Zposition Zrotation Yrotation Xrotation 
	JOINT LHipJoint
	{
		OFFSET 0.000000 0.000000 0.000000
		CHANNELS 3 Zrotation Yrotation Xrotation
		JOINT LeftUpLeg
		{
			OFFSET 1.363060 -1.794630 0.839290
			CHANNELS 3 Zrotation Yrotation Xrotation
			JOINT LeftLeg
			{
				OFFSET 2.448110 -6.726130 0.000000
				CHANNELS 3 Zrotation Yrotation Xrotation
				JOINT LeftFoot
				{
					OFFSET 2.562200 -7.039590 0.000000
					CHANNELS 3 Zrotation Yrotation Xrotation
					JOINT LeftToeBase
					{
						OFFSET 0.157640 -0.433110 2.322550
						CHANNELS 3 Zrotation Yrotation Xrotation
						End Site
						{
							OFFSET 0.000000 0.000000 0.000000
						}
					}
				}
			}
		}
	}
	JOINT RHipJoint
	{
		OFFSET 0.000000 0.000000 0.000000
		CHANNELS 3 Zrotation Yrotation Xrotation
		JOINT RightUpLeg
		{
			OFFSET -1.305520 -1.794630 0.839290
			CHANNELS 3 Zrotation Yrotation Xrotation
			JOINT RightLeg
			{
				OFFSET -2.542530 -6.985550 0.000000
				CHANNELS 3 Zrotation Yrotation Xrotation
				JOINT RightFoot
				{
					OFFSET -2.568260 -7.056230 0.000000
					CHANNELS 3 Zrotation Yrotation Xrotation
					JOINT RightToeBase
					{
						OFFSET -0.164730 -0.452590 2.363150
						CHANNELS 3 Zrotation Yrotation Xrotation
						End Site
						{
							OFFSET 0.000000 0.000000 0.000000
						}
					}
				}
			}
		}
	}
	JOINT LowerBack
	{
		OFFSET 0.000000 0.000000 0.000000
		CHANNELS 3 Zrotation Yrotation Xrotation
		JOINT Spine
		{
			OFFSET 0.028270 2.035590 -0.193380
			CHANNELS 3 Zrotation Yrotation Xrotation
			JOINT Spine1
			{
				OFFSET 0.056720 2.048850 -0.042750
				CHANNELS 3 Zrotation Yrotation Xrotation
				JOINT Neck
				{
					OFFSET 0.000000 0.000000 0.000000
					CHANNELS 3 Zrotation Yrotation Xrotation
					JOINT Neck1
					{
						OFFSET -0.054170 1.746240 0.172020
						CHANNELS 3 Zrotation Yrotation Xrotation
						JOINT Head
						{
							OFFSET 0.104070 1.761360 -0.123970
							CHANNELS 3 Zrotation Yrotation Xrotation
							End Site
							{
								OFFSET 0.000000 0.000000 0.000000
							}
						}
					}
				}
				JOINT LeftShoulder
				{
					OFFSET 0.000000 0.000000 0.000000
					CHANNELS 3 Zrotation Yrotation Xrotation
					JOINT LeftArm
					{
						OFFSET 3.362410 1.200890 -0.311210
						CHANNELS 3 Zrotation Yrotation Xrotation
						JOINT LeftForeArm
						{
							OFFSET 4.983000 -0.000000 -0.000000
							CHANNELS 3 Zrotation Yrotation Xrotation
							JOINT LeftHand
							{
								OFFSET 3.483560 -0.000000 -0.000000
								CHANNELS 3 Zrotation Yrotation Xrotation
								JOINT LeftFingerBase
								{
									OFFSET 0.000000 0.000000 0.000000
									CHANNELS 3 Zrotation Yrotation Xrotation
									JOINT LeftHandIndex1
									{
										OFFSET 0.715260 -0.000000 -0.000000
										CHANNELS 3 Zrotation Yrotation Xrotation
										End Site
										{
											OFFSET 0.000000 0.000000 0.000000
										}
									}
								}
								JOINT LThumb
								{
									OFFSET 0.000000 0.000000 0.000000
									CHANNELS 3 Zrotation Yrotation Xrotation
									End Site
									{
										OFFSET 0.000000 0.000000 0.000000
									}
								}
							}
						}
					}
				}
				JOINT RightShoulder
				{
					OFFSET 0.000000 0.000000 0.000000
					CHANNELS 3 Zrotation Yrotation Xrotation
					JOINT RightArm
					{
						OFFSET -3.136600 1.374050 -0.404650
						CHANNELS 3 Zrotation Yrotation Xrotation
						JOINT RightForeArm
						{
							OFFSET -5.241900 -0.000000 -0.000000
							CHANNELS 3 Zrotation Yrotation Xrotation
							JOINT RightHand
							{
								OFFSET -3.444170 -0.000000 -0.000000
								CHANNELS 3 Zrotation Yrotation Xrotation
								JOINT RightFingerBase
								{
									OFFSET 0.000000 0.000000 0.000000
									CHANNELS 3 Zrotation Yrotation Xrotation
									JOINT RightHandIndex1
									{
										OFFSET -0.622530 -0.000000 -0.000000
										CHANNELS 3 Zrotation Yrotation Xrotation
										End Site
										{
											OFFSET 0.000000 0.000000 0.000000
										}
									}
								}
								JOINT RThumb
								{
									OFFSET 0.000000 0.000000 0.000000
									CHANNELS 3 Zrotation Yrotation Xrotation
									End Site
									{
										OFFSET 0.000000 0.000000 0.000000
									}
								}
							}
						}
					}
				}
			}
		}
	}
}
MOTION
Frames: 9
Frame Time: 0.008333
47.296284 16.873030 7.123394 -177.680954 34.093042 176.663486 1.178724 -3.724652 -0.866240 -22.236857 20.117293 -19.031031 1.123220 11.439484 31.075028 -1.430048 13.482983 -19.935129 0.283200 3.422600 9.457600 -3.412363 5.517986 -7.006295 9.379542 -17.153555 20.499694 -1.620125 -11.848665 28.480054 1.659006 -21.076738 -22.672496 -4.585000 -12.900700 38.997800 -0.521529 4.442173 13.662643 -1.038796 6.589065 -1.036366 -7.407039 3.629864 3.651233 5.366722 9.683070 -18.836821 -2.557393 12.890773 10.530376 -4.703800 5.870500 13.827600 6.386441 -0.707912 0.604860 -83.265026 13.695797 12.581297 9.143390 -17.863644 -1.780979 -0.243112 0.939782 22.407549 16.572913 -23.433617 -7.202900 -7.125000 0.000000 0.000000 -7.484700 5.007000 6.862900 -4.349954 0.126330 1.221970 68.766399 19.189301 61.458098 -52.955578 56.246578 -24.224896 1.170480 -1.428903 9.023618 -8.507917 -25.123264 4.030900 7.125000 0.000000 0.000000 19.941400 -52.966800 -4.036700 
47.310719 16.897569 7.013074 -178.160974 33.768355 176.493791 1.184242 -3.704710 -0.810721 -22.811441 20.537477 -18.715821 1.048827 11.334910 30.658668 -1.224821 12.550853 -19.815478 0.381700 3.967600 10.985500 -3.375697 5.459582 -7.052271 9.930124 -15.893336 20.646862 -1.689413 -11.904261 28.786900 1.722669 -21.463324 -22.873887 -4.205600 -12.429100 37.267200 -0.940098 4.556877 13.601881 -1.090120 6.708590 -1.052571 -7.314476 3.692984 3.628348 5.098118 9.554079 -18.916362 -2.498670 12.895397 10.800695 -4.611500 5.871100 14.013000 6.383198 -0.713342 0.560690 -83.106990 12.920993 14.646568 9.824180 -18.863208 -2.005480 -0.270437 0.929482 20.543630 16.987257 -23.600712 -7.431700 -7.125000 0.000000 0.000000 -7.244200 4.776700 6.670400 -4.359743 0.163647 1.212721 68.399805 19.078231 61.935882 -52.341055 55.998518 -23.769303 1.164982 -1.415512 9.257435 -7.913970 -25.069927 3.780300 7.125000 0.000000 0.000000 20.503200 -52.837800 -4.092000 
47.324432 16.923345 6.904094 -178.321168 33.383102 176.611144 1.175265 -3.695975 -0.805900 -23.187776 20.168677 -18.083057 0.881525 11.162307 29.974498 -1.229877 12.657189 -19.909094 0.345100 3.774600 10.443500 -3.356461 5.442845 -6.984680 9.411574 -15.898265 19.250853 -2.047201 -12.457320 30.634250 1.529633 -20.039472 -21.660563 -3.644300 -11.671400 34.579300 -1.118888 4.589556 13.428967 -1.120261 6.727853 -1.094957 -7.296263 3.698077 3.571409 4.975253 9.503711 -18.975171 -2.393583 12.978970 11.130683 -4.512100 5.926200 14.261800 6.402738 -0.719343 0.511376 -83.121248 12.508998 16.356923 10.890586 -20.415206 -2.383901 -0.300339 0.910594 18.167313 17.306068 -23.888106 -7.651200 -7.125000 0.000000 0.000000 -7.076900 4.440700 6.558900 -4.376966 0.196653 1.200759 68.082568 19.050060 62.585563 -51.795031 55.775381 -23.360448 1.157389 -1.408154 9.477807 -7.579061 -25.074169 3.643600 7.125000 0.000000 0.000000 20.840700 -52.798200 -4.143500 
47.348351 16.950770 6.802846 -178.054810 32.937042 176.871928 1.167907 -3.651409 -0.789201 -22.934441 19.741331 -17.262672 0.754838 10.966513 29.345563 -1.062658 11.984260 -20.134973 0.497900 4.523700 12.555000 -3.384184 5.381501 -6.908610 9.509027 -15.876176 17.681181 -2.445203 -13.054524 32.607640 1.316461 -18.316556 -20.127635 -3.452600 -11.393900 33.620300 -1.048220 4.567429 13.348807 -1.118224 6.690655 -1.135702 -7.300671 3.673528 3.459674 5.006263 9.549344 -18.944700 -2.228201 13.062650 11.292648 -4.403500 5.991100 14.374700 6.436689 -0.733870 0.452937 -82.248244 12.805428 21.769680 12.713373 -23.019038 -3.084060 -0.398270 0.828490 12.142609 17.836008 -23.364767 -7.719500 -7.125000 0.000000 0.000000 -6.708600 4.940600 6.149100 -4.398171 0.230288 1.204140 67.859769 19.075956 63.271270 -51.327060 55.577850 -22.995092 1.155633 -1.398655 9.884155 -6.970555 -25.050005 3.395700 7.125000 0.000000 0.000000 21.421300 -52.696300 -4.212800 
47.374333 16.982526 6.706445 -177.633366 32.379932 177.192858 1.174985 -3.593338 -0.766718 -22.542715 19.514261 -16.605083 0.680534 10.813768 28.896317 -0.984866 11.581923 -20.055334 0.499700 4.531800 12.577700 -3.439533 5.294483 -6.857354 10.205424 -15.574633 16.541908 -2.703858 -13.425347 33.825897 1.181580 -17.109783 -18.934966 -3.336300 -11.220500 33.027200 -0.868863 4.482673 13.301677 -1.102757 6.578320 -1.174807 -7.352309 3.613161 3.340314 5.218482 9.666386 -18.904739 -2.145814 13.169195 11.360955 -4.382600 6.069900 14.455900 6.478423 -0.755571 0.418746 -81.773622 12.656322 23.467292 14.273941 -25.129570 -3.755461 -0.394650 0.789575 10.271802 17.488079 -23.297973 -7.525900 -7.125000 0.000000 0.000000 -6.938100 5.083100 6.343800 -4.412625 0.258935 1.210199 67.676032 19.185179 64.013696 -50.874642 55.384973 -22.645526 1.151449 -1.393054 10.241464 -6.549223 -25.065538 3.228000 7.125000 0.000000 0.000000 21.841400 -52.656000 -4.279800 
47.398150 17.015107 6.606744 -177.108451 31.737180 177.563310 1.181156 -3.524929 -0.744760 -22.108943 19.300302 -15.949149 0.599563 10.648791 28.406468 -1.023629 11.628628 -19.759997 0.346100 3.780100 10.458800 -3.512461 5.184972 -6.818209 11.302044 -14.974962 15.682713 -2.864550 -13.650234 34.546156 1.015306 -16.017516 -18.865060 -3.544300 -11.528000 34.082000 -0.578384 4.410669 13.247720 -1.047889 6.483040 -1.214753 -7.266804 3.548684 3.231340 5.182941 9.713498 -18.861571 -2.019260 13.273266 11.453558 -4.281700 6.131400 14.517700 6.527427 -0.776068 0.385319 -81.559483 12.422152 24.779898 15.803542 -27.100853 -4.460729 -0.381797 0.741029 8.935422 16.967004 -22.743945 -7.115100 -7.125000 0.000000 0.000000 -7.240300 5.760400 6.530600 -4.422509 0.285731 1.208738 67.351779 19.233196 64.644147 -50.283729 55.119105 -22.205236 1.133768 -1.389677 10.459715 -6.444586 -24.803118 3.147500 7.125000 0.000000 0.000000 21.815500 -52.400300 -4.133900 
47.428050 17.044388 6.507147 -175.989671 31.008003 178.133019 1.185356 -3.418353 -0.716085 -20.999147 18.991458 -15.052712 0.531879 10.428531 27.857720 -1.062161 11.625901 -19.429009 0.261000 3.286700 9.078100 -3.660153 5.020591 -6.778073 13.216903 -14.363039 14.823398 -2.991856 -13.892071 35.191736 0.952241 -15.448117 -18.521136 -3.403900 -11.321800 33.372900 0.340173 4.338794 13.243449 -0.926891 6.437383 -1.234803 -7.323398 3.512086 3.210786 5.704793 9.707864 -19.128519 -2.365323 13.296743 11.781772 -4.627300 6.177000 14.990600 6.648996 -0.816103 0.356703 -81.299672 12.161988 26.458894 17.392789 -29.064208 -5.237055 -0.374074 0.759804 7.153445 16.822735 -24.202101 -7.459300 -7.125000 0.000000 0.000000 -7.457000 4.264900 6.942000 -4.366875 0.297177 1.197023 66.891592 19.185840 65.083920 -49.791365 54.874282 -21.834364 1.115266 -1.378579 10.588165 -6.230901 -24.299602 2.993600 7.125000 0.000000 0.000000 21.773700 -51.909000 -3.855500 
47.432999 17.085423 6.401878 -177.014087 30.141889 177.940600 1.179412 -3.456023 -0.738116 -22.422128 18.267926 -14.486022 0.317514 10.282902 27.094260 -1.039218 11.594735 -19.341636 0.212500 2.968200 8.190100 -3.590765 5.055341 -6.729493 12.111308 -14.277746 13.666820 -3.203278 -14.068774 36.011968 0.862160 -14.680188 -17.847432 -3.088700 -10.837200 31.732900 -0.622033 4.261882 12.923862 -0.994662 6.248713 -1.276201 -6.991326 3.401369 3.180598 5.240915 9.620357 -19.072544 -2.095196 13.261721 11.741909 -4.364200 6.143000 14.845500 6.637778 -0.818732 0.316618 -80.731421 12.214353 28.910201 19.526427 -31.548669 -6.343074 -0.389119 0.680781 4.612995 16.525363 -22.923316 -6.948400 -7.125000 0.000000 0.000000 -7.556400 5.669400 6.834000 -4.413398 0.330952 1.192757 66.237419 19.184537 65.609776 -49.563422 54.740923 -21.656866 1.103751 -1.360035 10.582304 -5.947775 -23.984741 2.840200 7.125000 0.000000 0.000000 21.901200 -51.587400 -3.701900 
47.453001 17.122746 6.310941 -177.338049 29.168992 177.978781 1.176844 -3.435844 -0.749618 -22.900898 17.497898 -13.764925 0.161687 10.120063 26.445776 -1.036247 11.565781 -19.167808 0.176400 2.705500 7.459900 -3.598165 5.021672 -6.684261 12.077149 -14.016198 12.672126 -3.335270 -14.200909 36.539766 0.800524 -14.260908 -17.767908 -3.127500 -10.898600 31.938800 -1.070273 4.159045 12.812604 -0.993198 6.067539 -1.308671 -6.743953 3.293874 3.094009 5.225741 9.631646 -19.093064 -2.052580 13.295530 11.767699 -4.340300 6.164400 14.889700 6.672703 -0.844687 0.293986 -80.474375 11.866256 29.969682 21.377190 -33.558328 -7.363213 -0.416969 0.636909 3.343429 17.296728 -22.050476 -7.022500 -7.125000 0.000000 0.000000 -7.006300 6.485100 6.217900 -4.420431 0.364304 1.190193 65.625358 19.139022 65.997964 -49.429758 54.646142 -21.562337 1.095193 -1.343986 10.563014 -5.748755 -23.875752 2.746800 7.125000 0.000000 0.000000 22.051900 -51.467500 -3.662600 
